# xmcd
#
# Track frame offsets: 
#        150
#        25499
#        41698
#        57821
#        71321
#        93895
#        109194
#        130191
#        153665
#        169415
#        190190
#        212614
#
# Disc length: 3013 seconds
#
# Revision: 3
# Processed by: cddbd v1.5.2PL0 Copyright (c) Steve Scherf et al.
# Submitted via: ExactAudioCopy v1.0b3
#
DISCID=a30bc30c
DTITLE=Rob Tognoni - Art
DYEAR=2012
DGENRE=Bluesrock
TTITLE0=Shoot The Dove
TTITLE1=Heaven Or Hell
TTITLE2=Play Your Blues
TTITLE3=Cafe Deluxe
TTITLE4=Sling Blade Made
TTITLE5=Set You Free
TTITLE6=Angel
TTITLE7=Roadrunner
TTITLE8=Reasons Why
TTITLE9=Fuck It
TTITLE10=Hey Hey, My My
TTITLE11=Turn Up Your Radio
EXTD=
EXTT0=
EXTT1=
EXTT2=
EXTT3=
EXTT4=
EXTT5=
EXTT6=
EXTT7=
EXTT8=
EXTT9=
EXTT10=
EXTT11=
PLAYORDER=
